<?xml version="1.0" encoding="utf-8"?>
<!-- Generator: Adobe Illustrator 20.0.0, SVG Export Plug-In . SVG Version: 6.00 Build 0)  -->
<svg version="1.1" id="Layer_1" xmlns="http://www.w3.org/2000/svg" xmlns:xlink="http://www.w3.org/1999/xlink" x="0px" y="0px"
	 width="220px" height="43.7px" viewBox="0 0 220 43.7" style="enable-background:new 0 0 220 43.7;" xml:space="preserve">
<style type="text/css">
	.st0{fill:#1B2737;}
	.st1{fill:#464B53;}
	.st2{fill:url(#SVGID_1_);}
  #pointer {
    -webkit-animation: rotatePointer 60s steps(60, end) infinite;
    animation: rotatePointer 60s steps(60, end) infinite;
    -webkit-transform-origin: 22px 20px;
    transform-origin: 22px 20px;
  }
  @-webkit-keyframes rotatePointer {
    to { -webkit-transform: rotate(360deg); transform: rotate(360deg);}
  }
  @keyframes rotatePointer {
    to { -webkit-transform: rotate(360deg); transform: rotate(360deg);}
  }
</style>
<title>Asset 1</title>
<g id="Layer_2">
	<g id="Layer_1-2">
		<g>
			<path class="st0" d="M117.9,16.3c-0.7-0.9-1.8-1.4-2.9-1.3c-1.3,0-2.7,0.6-2.7,2.1c0,3.3,7.8,1.4,7.8,7.3c0,3.5-2.8,5.2-6,5.2
				c-2,0.1-4-0.7-5.4-2.2l2.2-2.1c0.7,1.1,1.9,1.7,3.3,1.7c1.4,0,2.9-0.7,2.9-2.2c0-3.6-7.8-1.5-7.8-7.4c0-3.4,3-5,6.1-5
				c1.7-0.1,3.4,0.5,4.7,1.7L117.9,16.3z"/>
			<path class="st0" d="M129.1,21.4c-0.5-0.6-1.3-1-2.1-1.1c-1.8,0-3.2,1.4-3.3,3.2c0,0.1,0,0.1,0,0.2c-0.1,1.8,1.3,3.3,3.1,3.3
				c0.1,0,0.1,0,0.2,0c0.8,0,1.6-0.4,2.2-1l1.9,2c-1.1,1-2.5,1.5-4,1.6c-3.4,0-6.1-2.3-6.1-5.8s2.7-5.8,6.1-5.8c1.5,0,3,0.6,4,1.7
				L129.1,21.4z"/>
			<path class="st0" d="M135.1,19.6L135.1,19.6c0.7-1.2,2-1.9,3.3-1.8c3,0,4.1,2.1,4.1,4.4v7h-2.8v-5.6c0-1.2-0.1-3.3-2-3.3
				c-1.8,0-2.6,1.3-2.6,2.8v6.1h-2.8V11.6h2.8L135.1,19.6z"/>
			<path class="st0" d="M146.5,24.6c0.1,1.5,1.4,2.7,3,2.6c1.2,0,2.3-0.6,3-1.5l2,1.5c-1.1,1.4-2.9,2.3-4.7,2.2
				c-3.4,0-6.1-2.3-6.1-5.8s2.7-5.8,6.1-5.8c3.1,0,5.2,2.2,5.2,6.1v0.8H146.5z M152.3,22.5c0-1.6-1.1-2.6-2.8-2.6
				c-1.5-0.1-2.8,1.1-2.9,2.6H152.3z"/>
			<path class="st0" d="M165.5,27.5L165.5,27.5c-0.9,1.3-2.3,2-3.9,1.9c-3.4,0-5.5-2.6-5.5-5.8s2.2-5.8,5.4-5.8
				c1.5-0.1,2.9,0.6,3.8,1.7h0.1v-7.8h2.8v17.5h-2.6V27.5z M162.2,26.9c1.8,0,3.2-1.4,3.3-3.2c0-0.1,0-0.1,0-0.2
				c0-1.8-1.5-3.3-3.3-3.3c-1.8,0-3.3,1.5-3.3,3.3c0,0,0,0,0,0c-0.1,1.8,1.3,3.3,3.1,3.4C162.1,27,162.1,27,162.2,26.9L162.2,26.9z"
				/>
			<path class="st0" d="M180.1,29.2h-2.6v-1.8h0c-0.6,1.3-1.9,2.2-3.4,2.1c-3,0-4.1-2.1-4.1-4.4v-7.1h2.8v5.6c0,1.2,0.1,3.3,2,3.3
				c1.8,0,2.6-1.4,2.6-2.8v-6.1h2.8V29.2z"/>
			<path class="st0" d="M182.4,11.6h2.8v17.5h-2.8V11.6z"/>
			<path class="st0" d="M188.9,12.6c0.9-0.1,1.8,0.7,1.8,1.6c0,0,0,0,0,0.1c-0.1,1-0.9,1.7-1.9,1.7c-0.9-0.1-1.6-0.8-1.7-1.7
				C187.1,13.3,187.9,12.6,188.9,12.6C188.9,12.6,188.9,12.6,188.9,12.6z M187.5,18h2.8v11.1h-2.8V18z"/>
			<path class="st0" d="M192.6,18.1h2.6v1.8h0c0.6-1.3,1.9-2.2,3.4-2.1c3,0,4.1,2.1,4.1,4.4v7h-2.8v-5.6c0-1.2-0.1-3.3-2-3.3
				c-1.8,0-2.6,1.3-2.6,2.8v6.1h-2.8L192.6,18.1z"/>
			<path class="st0" d="M216,18.1v10.1c0,4-1.9,6.6-6.3,6.6c-2,0.1-4-0.5-5.5-1.8l1.7-2.3c1,1,2.4,1.6,3.8,1.6
				c2.7,0,3.5-1.5,3.5-3.7v-0.8h-0.1c-0.9,1.1-2.2,1.7-3.6,1.6c-3.3,0-5.6-2.6-5.6-5.7c0-3.3,2.1-5.8,5.5-5.8c1.5-0.1,3,0.7,3.8,1.9
				h0v-1.7H216z M206.7,23.6c0,1.8,1.4,3.2,3.2,3.2c0,0,0,0,0.1,0c1.7,0.1,3.2-1.2,3.3-2.9c0-0.1,0-0.2,0-0.3
				c0.1-1.7-1.2-3.2-2.9-3.3c-0.1,0-0.3,0-0.4,0c-1.7-0.1-3.2,1.2-3.3,3C206.7,23.4,206.7,23.5,206.7,23.6L206.7,23.6z"/>
			<path class="st0" d="M47.9,12.5h2.5L57.5,29h-3.3l-1.5-3.8h-7.1L44.1,29h-3.3L47.9,12.5z M51.6,22.7L49.1,16l-2.6,6.7H51.6z"/>
			<path class="st0" d="M65.3,21.2c-0.5-0.6-1.3-1-2.1-1.1c-1.8,0-3.2,1.4-3.3,3.2c0,0.1,0,0.1,0,0.2c-0.1,1.8,1.3,3.3,3.1,3.3
				c0.1,0,0.1,0,0.2,0c0.8,0,1.6-0.4,2.2-1l1.9,2c-1.1,1-2.5,1.5-4,1.6c-3.4,0-6.1-2.3-6.1-5.8s2.7-5.8,6.1-5.8c1.5,0,3,0.6,4,1.7
				L65.3,21.2z"/>
			<path class="st0" d="M78.6,29H76v-1.8l0,0c-0.6,1.3-1.9,2.2-3.4,2.1c-3,0-4.1-2.1-4.1-4.4v-7.1h2.8v5.6c0,1.2,0.1,3.3,2,3.3
				c1.8,0,2.6-1.3,2.6-2.8v-6.1h2.8L78.6,29z"/>
			<path class="st0" d="M81.8,12.4c0.9-0.1,1.8,0.7,1.8,1.6c0,0,0,0,0,0.1c-0.1,1-0.9,1.7-1.9,1.7c-0.9-0.1-1.6-0.8-1.7-1.7
				C80.1,13.1,80.9,12.3,81.8,12.4C81.8,12.4,81.8,12.4,81.8,12.4z M80.4,17.8h2.8V29h-2.8V17.8z"/>
			<path class="st0" d="M84.7,20.2v-2.4H87v-3.2h2.8v3.2h3.1v2.4h-3.1v4.9c0,1.1,0.3,1.8,1.6,1.8c0.5,0,1-0.1,1.5-0.3v2.4
				c-0.7,0.3-1.5,0.4-2.2,0.4c-2.9,0-3.6-1.3-3.6-3.9v-5.1H84.7z"/>
			<path class="st0" d="M93.6,17.8h3.1l3.1,7.7h0l2.8-7.7h2.9l-5.3,13.5c-0.8,2.1-1.8,3.2-4.2,3.2c-0.7,0-1.4-0.1-2.1-0.3l0.3-2.5
				c0.4,0.2,0.9,0.3,1.4,0.3c1.4,0,1.7-0.5,2.2-1.6l0.5-1.3L93.6,17.8z"/>
			<circle class="st1" cx="22.6" cy="20.1" r="3.8"/>
			
				<linearGradient id="SVGID_1_" gradientUnits="userSpaceOnUse" x1="9.1372" y1="25.9008" x2="36.0969" y2="25.9008" gradientTransform="matrix(1 0 0 -1 0 46)">
				<stop  offset="0" style="stop-color:#FFE7A3"/>
				<stop  offset="0.5" style="stop-color:#FFCA05"/>
				<stop  offset="1" style="stop-color:#FAAC18"/>
			</linearGradient>
			<path class="st2" d="M22.6,6.6c-7.4,0-13.5,6-13.5,13.5c0,3.1,1.1,6.1,3,8.5l2-4.7c-2.1-4.7,0-10.3,4.7-12.4s10.3,0,12.4,4.7
				s0,10.3-4.7,12.4c-3.7,1.6-8,0.8-10.7-2.2l-1.8,4.1c5.8,4.7,14.2,3.9,19-1.9s3.9-14.2-1.9-19C28.8,7.7,25.7,6.6,22.6,6.6z"/>
			<g>
				<path class="st0" d="M17.1,23.5l-4.9,11.3c-0.1,0.1,0,0.3,0.1,0.3c0.1,0.1,0.3,0,0.3-0.1l8.9-8.5C19.7,26.1,18.1,25,17.1,23.5z"
					/>
				<path id="pointer" class="st0" d="M34.5,36.6l-6.3-13.3l-2.4-5l0,0c-0.1-0.1-0.1-0.2-0.2-0.3c-1.3-1.6-3.6-2-5.3-0.7
					c-1.5,1.2-1.9,3.4-0.9,5c0.1,0.1,0.1,0.2,0.2,0.3l0,0l3.9,3.9L34,36.9c0.1,0.1,0.3,0.2,0.4,0.1C34.6,36.9,34.6,36.7,34.5,36.6
					C34.5,36.6,34.5,36.6,34.5,36.6L34.5,36.6z"/>
			</g>
		</g>
	</g>
</g>
</svg>
