<?xml version="1.0" encoding="utf-8"?>
<!-- Generator: Adobe Illustrator 20.0.0, SVG Export Plug-In . SVG Version: 6.00 Build 0)  -->
<svg version="1.1" id="Layer_1" xmlns="http://www.w3.org/2000/svg" xmlns:xlink="http://www.w3.org/1999/xlink" x="0px" y="0px"
	 width="1885px" height="923px" viewBox="0 0 1885 923" style="enable-background:new 0 0 1885 923;" xml:space="preserve">
<style type="text/css">
	.st0{fill:#7B64AC;}
	.st1{fill:#0B0B0B;}
</style>
<image style="overflow:visible;" width="1885" height="923" xlink:href="map.png" >
</image>
<path class="st0" d="M409.2,195.4L409.2,195.4c-7.1-7.1-18.6-7.1-25.7,0l0,0c-6.4,6.4-7.1,18.4-1.7,25.7l14.5,21l14.5-21
	C416.3,213.8,415.6,201.8,409.2,195.4z"/>
<path class="st0" d="M1069.3,589.7L1069.3,589.7c-7.1-7.1-18.6-7.1-25.7,0l0,0c-6.4,6.4-7.1,18.4-1.7,25.7l14.5,21l14.5-21
	C1076.4,608.2,1075.7,596.1,1069.3,589.7z"/>
<path class="st0" d="M1533.8,114.2L1533.8,114.2c-7.1-7.1-18.6-7.1-25.7,0l0,0c-6.4,6.4-7.1,18.4-1.7,25.7l14.5,21l14.5-21
	C1541,132.6,1540.2,120.6,1533.8,114.2z"/>
<path class="st0" d="M878.9,247.4L878.9,247.4c-7.1-7.1-18.6-7.1-25.7,0l0,0c-6.4,6.4-7.1,18.4-1.7,25.7l14.5,21l14.5-21
	C886,265.8,885.3,253.8,878.9,247.4z"/>
<path class="st0" d="M615.2,658.3L615.2,658.3c-7.1-7.1-18.6-7.1-25.7,0l0,0c-6.4,6.4-7.1,18.4-1.7,25.7l14.5,21l14.5-21
	C622.3,676.8,621.6,664.7,615.2,658.3z"/>
<path class="st1" d="M183.5,524L183.5,524c-7.1-7.1-18.6-7.1-25.7,0l0,0c-6.4,6.4-7.1,18.4-1.7,25.7l14.5,21l14.5-21
	C190.6,542.5,189.9,530.4,183.5,524z"/>
</svg>
